<svg xmlns="http://www.w3.org/2000/svg" xmlns:xlink="http://www.w3.org/1999/xlink" version="1.1" class="marks" width="990" height="664" viewBox="0 0 990 664"><rect width="990" height="664" fill="white"/><g fill="none" stroke-miterlimit="10" transform="translate(51,27)"><g class="mark-group role-frame root" role="graphics-object" aria-roledescription="group mark container"><g transform="translate(0,0)"><path class="background" aria-hidden="true" d="M0.5,0.5h800v600h-800Z" stroke="#ddd"/><g><g class="mark-group role-axis" aria-hidden="true"><g transform="translate(0.5,600.5)"><path class="background" aria-hidden="true" d="M0,0h0v0h0Z" pointer-events="none"/><g><g class="mark-rule role-axis-grid" pointer-events="none"><line transform="translate(0,-600)" x2="0" y2="600" stroke="#ddd" stroke-width="1" opacity="1"/><line transform="translate(40,-600)" x2="0" y2="600" stroke="#ddd" stroke-width="1" opacity="1"/><line transform="translate(64,-600)" x2="0" y2="600" stroke="#ddd" stroke-width="1" opacity="1"/><line transform="translate(80,-600)" x2="0" y2="600" stroke="#ddd" stroke-width="1" opacity="1"/><line transform="translate(93,-600)" x2="0" y2="600" stroke="#ddd" stroke-width="1" opacity="1"/><line transform="translate(104,-600)" x2="0" y2="600" stroke="#ddd" stroke-width="1" opacity="1"/><line transform="translate(113,-600)" x2="0" y2="600" stroke="#ddd" stroke-width="1" opacity="1"/><line transform="translate(120,-600)" x2="0" y2="600" stroke="#ddd" stroke-width="1" opacity="1"/><line transform="translate(127,-600)" x2="0" y2="600" stroke="#ddd" stroke-width="1" opacity="1"/><line transform="translate(133,-600)" x2="0" y2="600" stroke="#ddd" stroke-width="1" opacity="1"/><line transform="translate(173,-600)" x2="0" y2="600" stroke="#ddd" stroke-width="1" opacity="1"/><line transform="translate(197,-600)" x2="0" y2="600" stroke="#ddd" stroke-width="1" opacity="1"/><line transform="translate(214,-600)" x2="0" y2="600" stroke="#ddd" stroke-width="1" opacity="1"/><line transform="translate(227,-600)" x2="0" y2="600" stroke="#ddd" stroke-width="1" opacity="1"/><line transform="translate(237,-600)" x2="0" y2="600" stroke="#ddd" stroke-width="1" opacity="1"/><line transform="translate(246,-600)" x2="0" y2="600" stroke="#ddd" stroke-width="1" opacity="1"/><line transform="translate(254,-600)" x2="0" y2="600" stroke="#ddd" stroke-width="1" opacity="1"/><line transform="translate(261,-600)" x2="0" y2="600" stroke="#ddd" stroke-width="1" opacity="1"/><line transform="translate(267,-600)" x2="0" y2="600" stroke="#ddd" stroke-width="1" opacity="1"/><line transform="translate(307,-600)" x2="0" y2="600" stroke="#ddd" stroke-width="1" opacity="1"/><line transform="translate(330,-600)" x2="0" y2="600" stroke="#ddd" stroke-width="1" opacity="1"/><line transform="translate(347,-600)" x2="0" y2="600" stroke="#ddd" stroke-width="1" opacity="1"/><line transform="translate(360,-600)" x2="0" y2="600" stroke="#ddd" stroke-width="1" opacity="1"/><line transform="translate(370,-600)" x2="0" y2="600" stroke="#ddd" stroke-width="1" opacity="1"/><line transform="translate(379,-600)" x2="0" y2="600" stroke="#ddd" stroke-width="1" opacity="1"/><line transform="translate(387,-600)" x2="0" y2="600" stroke="#ddd" stroke-width="1" opacity="1"/><line transform="translate(394,-600)" x2="0" y2="600" stroke="#ddd" stroke-width="1" opacity="1"/><line transform="translate(400,-600)" x2="0" y2="600" stroke="#ddd" stroke-width="1" opacity="1"/><line transform="translate(440,-600)" x2="0" y2="600" stroke="#ddd" stroke-width="1" opacity="1"/><line transform="translate(464,-600)" x2="0" y2="600" stroke="#ddd" stroke-width="1" opacity="1"/><line transform="translate(480,-600)" x2="0" y2="600" stroke="#ddd" stroke-width="1" opacity="1"/><line transform="translate(493,-600)" x2="0" y2="600" stroke="#ddd" stroke-width="1" opacity="1"/><line transform="translate(504,-600)" x2="0" y2="600" stroke="#ddd" stroke-width="1" opacity="1"/><line transform="translate(513,-600)" x2="0" y2="600" stroke="#ddd" stroke-width="1" opacity="1"/><line transform="translate(520,-600)" x2="0" y2="600" stroke="#ddd" stroke-width="1" opacity="1"/><line transform="translate(527,-600)" x2="0" y2="600" stroke="#ddd" stroke-width="1" opacity="1"/><line transform="translate(533,-600)" x2="0" y2="600" stroke="#ddd" stroke-width="1" opacity="1"/><line transform="translate(573,-600)" x2="0" y2="600" stroke="#ddd" stroke-width="1" opacity="1"/><line transform="translate(597,-600)" x2="0" y2="600" stroke="#ddd" stroke-width="1" opacity="1"/><line transform="translate(614,-600)" x2="0" y2="600" stroke="#ddd" stroke-width="1" opacity="1"/><line transform="translate(627,-600)" x2="0" y2="600" stroke="#ddd" stroke-width="1" opacity="1"/><line transform="translate(637,-600)" x2="0" y2="600" stroke="#ddd" stroke-width="1" opacity="1"/><line transform="translate(646,-600)" x2="0" y2="600" stroke="#ddd" stroke-width="1" opacity="1"/><line transform="translate(654,-600)" x2="0" y2="600" stroke="#ddd" stroke-width="1" opacity="1"/><line transform="translate(661,-600)" x2="0" y2="600" stroke="#ddd" stroke-width="1" opacity="1"/><line transform="translate(667,-600)" x2="0" y2="600" stroke="#ddd" stroke-width="1" opacity="1"/><line transform="translate(707,-600)" x2="0" y2="600" stroke="#ddd" stroke-width="1" opacity="1"/><line transform="translate(730,-600)" x2="0" y2="600" stroke="#ddd" stroke-width="1" opacity="1"/><line transform="translate(747,-600)" x2="0" y2="600" stroke="#ddd" stroke-width="1" opacity="1"/><line transform="translate(760,-600)" x2="0" y2="600" stroke="#ddd" stroke-width="1" opacity="1"/><line transform="translate(770,-600)" x2="0" y2="600" stroke="#ddd" stroke-width="1" opacity="1"/><line transform="translate(779,-600)" x2="0" y2="600" stroke="#ddd" stroke-width="1" opacity="1"/><line transform="translate(787,-600)" x2="0" y2="600" stroke="#ddd" stroke-width="1" opacity="1"/><line transform="translate(794,-600)" x2="0" y2="600" stroke="#ddd" stroke-width="1" opacity="1"/><line transform="translate(800,-600)" x2="0" y2="600" stroke="#ddd" stroke-width="1" opacity="1"/></g></g><path class="foreground" aria-hidden="true" d="" pointer-events="none" display="none"/></g></g><g class="mark-group role-axis" role="graphics-symbol" aria-roledescription="axis" aria-label="X-axis titled 'n-elems' for a log scale with values from 1 to 1,000,000"><g transform="translate(0.5,600.5)"><path class="background" aria-hidden="true" d="M0,0h0v0h0Z" pointer-events="none"/><g><g class="mark-rule role-axis-tick" pointer-events="none"><line transform="translate(0,0)" x2="0" y2="5" stroke="#888" stroke-width="1" opacity="1"/><line transform="translate(40,0)" x2="0" y2="5" stroke="#888" stroke-width="1" opacity="1"/><line transform="translate(64,0)" x2="0" y2="5" stroke="#888" stroke-width="1" opacity="1"/><line transform="translate(80,0)" x2="0" y2="5" stroke="#888" stroke-width="1" opacity="1"/><line transform="translate(93,0)" x2="0" y2="5" stroke="#888" stroke-width="1" opacity="1"/><line transform="translate(104,0)" x2="0" y2="5" stroke="#888" stroke-width="1" opacity="1"/><line transform="translate(113,0)" x2="0" y2="5" stroke="#888" stroke-width="1" opacity="1"/><line transform="translate(120,0)" x2="0" y2="5" stroke="#888" stroke-width="1" opacity="1"/><line transform="translate(127,0)" x2="0" y2="5" stroke="#888" stroke-width="1" opacity="1"/><line transform="translate(133,0)" x2="0" y2="5" stroke="#888" stroke-width="1" opacity="1"/><line transform="translate(173,0)" x2="0" y2="5" stroke="#888" stroke-width="1" opacity="1"/><line transform="translate(197,0)" x2="0" y2="5" stroke="#888" stroke-width="1" opacity="1"/><line transform="translate(214,0)" x2="0" y2="5" stroke="#888" stroke-width="1" opacity="1"/><line transform="translate(227,0)" x2="0" y2="5" stroke="#888" stroke-width="1" opacity="1"/><line transform="translate(237,0)" x2="0" y2="5" stroke="#888" stroke-width="1" opacity="1"/><line transform="translate(246,0)" x2="0" y2="5" stroke="#888" stroke-width="1" opacity="1"/><line transform="translate(254,0)" x2="0" y2="5" stroke="#888" stroke-width="1" opacity="1"/><line transform="translate(261,0)" x2="0" y2="5" stroke="#888" stroke-width="1" opacity="1"/><line transform="translate(267,0)" x2="0" y2="5" stroke="#888" stroke-width="1" opacity="1"/><line transform="translate(307,0)" x2="0" y2="5" stroke="#888" stroke-width="1" opacity="1"/><line transform="translate(330,0)" x2="0" y2="5" stroke="#888" stroke-width="1" opacity="1"/><line transform="translate(347,0)" x2="0" y2="5" stroke="#888" stroke-width="1" opacity="1"/><line transform="translate(360,0)" x2="0" y2="5" stroke="#888" stroke-width="1" opacity="1"/><line transform="translate(370,0)" x2="0" y2="5" stroke="#888" stroke-width="1" opacity="1"/><line transform="translate(379,0)" x2="0" y2="5" stroke="#888" stroke-width="1" opacity="1"/><line transform="translate(387,0)" x2="0" y2="5" stroke="#888" stroke-width="1" opacity="1"/><line transform="translate(394,0)" x2="0" y2="5" stroke="#888" stroke-width="1" opacity="1"/><line transform="translate(400,0)" x2="0" y2="5" stroke="#888" stroke-width="1" opacity="1"/><line transform="translate(440,0)" x2="0" y2="5" stroke="#888" stroke-width="1" opacity="1"/><line transform="translate(464,0)" x2="0" y2="5" stroke="#888" stroke-width="1" opacity="1"/><line transform="translate(480,0)" x2="0" y2="5" stroke="#888" stroke-width="1" opacity="1"/><line transform="translate(493,0)" x2="0" y2="5" stroke="#888" stroke-width="1" opacity="1"/><line transform="translate(504,0)" x2="0" y2="5" stroke="#888" stroke-width="1" opacity="1"/><line transform="translate(513,0)" x2="0" y2="5" stroke="#888" stroke-width="1" opacity="1"/><line transform="translate(520,0)" x2="0" y2="5" stroke="#888" stroke-width="1" opacity="1"/><line transform="translate(527,0)" x2="0" y2="5" stroke="#888" stroke-width="1" opacity="1"/><line transform="translate(533,0)" x2="0" y2="5" stroke="#888" stroke-width="1" opacity="1"/><line transform="translate(573,0)" x2="0" y2="5" stroke="#888" stroke-width="1" opacity="1"/><line transform="translate(597,0)" x2="0" y2="5" stroke="#888" stroke-width="1" opacity="1"/><line transform="translate(614,0)" x2="0" y2="5" stroke="#888" stroke-width="1" opacity="1"/><line transform="translate(627,0)" x2="0" y2="5" stroke="#888" stroke-width="1" opacity="1"/><line transform="translate(637,0)" x2="0" y2="5" stroke="#888" stroke-width="1" opacity="1"/><line transform="translate(646,0)" x2="0" y2="5" stroke="#888" stroke-width="1" opacity="1"/><line transform="translate(654,0)" x2="0" y2="5" stroke="#888" stroke-width="1" opacity="1"/><line transform="translate(661,0)" x2="0" y2="5" stroke="#888" stroke-width="1" opacity="1"/><line transform="translate(667,0)" x2="0" y2="5" stroke="#888" stroke-width="1" opacity="1"/><line transform="translate(707,0)" x2="0" y2="5" stroke="#888" stroke-width="1" opacity="1"/><line transform="translate(730,0)" x2="0" y2="5" stroke="#888" stroke-width="1" opacity="1"/><line transform="translate(747,0)" x2="0" y2="5" stroke="#888" stroke-width="1" opacity="1"/><line transform="translate(760,0)" x2="0" y2="5" stroke="#888" stroke-width="1" opacity="1"/><line transform="translate(770,0)" x2="0" y2="5" stroke="#888" stroke-width="1" opacity="1"/><line transform="translate(779,0)" x2="0" y2="5" stroke="#888" stroke-width="1" opacity="1"/><line transform="translate(787,0)" x2="0" y2="5" stroke="#888" stroke-width="1" opacity="1"/><line transform="translate(794,0)" x2="0" y2="5" stroke="#888" stroke-width="1" opacity="1"/><line transform="translate(800,0)" x2="0" y2="5" stroke="#888" stroke-width="1" opacity="1"/></g><g class="mark-text role-axis-label" pointer-events="none"><text text-anchor="start" transform="translate(0,15)" font-family="sans-serif" font-size="10px" fill="#000" opacity="1">1</text><text text-anchor="middle" transform="translate(40.13733275519749,15)" font-family="sans-serif" font-size="10px" fill="#000" opacity="1"/><text text-anchor="middle" transform="translate(63.616167295954995,15)" font-family="sans-serif" font-size="10px" fill="#000" opacity="1"/><text text-anchor="middle" transform="translate(80.27466551039498,15)" font-family="sans-serif" font-size="10px" fill="#000" opacity="1"/><text text-anchor="middle" transform="translate(93.19600057813584,15)" font-family="sans-serif" font-size="10px" fill="#000" opacity="1"/><text text-anchor="middle" transform="translate(103.75350005115249,15)" font-family="sans-serif" font-size="10px" fill="#000" opacity="1"/><text text-anchor="middle" transform="translate(112.67973866856758,15)" font-family="sans-serif" font-size="10px" fill="#000" opacity="1"/><text text-anchor="middle" transform="translate(120.41199826559247,15)" font-family="sans-serif" font-size="10px" fill="#000" opacity="1"/><text text-anchor="middle" transform="translate(127.23233459190999,15)" font-family="sans-serif" font-size="10px" fill="#000" opacity="1"/><text text-anchor="middle" transform="translate(133.33333333333334,15)" font-family="sans-serif" font-size="10px" fill="#000" opacity="1">10</text><text text-anchor="middle" transform="translate(173.47066608853083,15)" font-family="sans-serif" font-size="10px" fill="#000" opacity="1"/><text text-anchor="middle" transform="translate(196.94950062928834,15)" font-family="sans-serif" font-size="10px" fill="#000" opacity="1"/><text text-anchor="middle" transform="translate(213.60799884372832,15)" font-family="sans-serif" font-size="10px" fill="#000" opacity="1"/><text text-anchor="middle" transform="translate(226.52933391146917,15)" font-family="sans-serif" font-size="10px" fill="#000" opacity="1"/><text text-anchor="middle" transform="translate(237.08683338448583,15)" font-family="sans-serif" font-size="10px" fill="#000" opacity="1"/><text text-anchor="middle" transform="translate(246.01307200190092,15)" font-family="sans-serif" font-size="10px" fill="#000" opacity="1"/><text text-anchor="middle" transform="translate(253.74533159892582,15)" font-family="sans-serif" font-size="10px" fill="#000" opacity="1"/><text text-anchor="middle" transform="translate(260.5656679252433,15)" font-family="sans-serif" font-size="10px" fill="#000" opacity="1"/><text text-anchor="middle" transform="translate(266.6666666666667,15)" font-family="sans-serif" font-size="10px" fill="#000" opacity="1">100</text><text text-anchor="middle" transform="translate(306.80399942186415,15)" font-family="sans-serif" font-size="10px" fill="#000" opacity="1"/><text text-anchor="middle" transform="translate(330.2828339626217,15)" font-family="sans-serif" font-size="10px" fill="#000" opacity="1"/><text text-anchor="middle" transform="translate(346.94133217706167,15)" font-family="sans-serif" font-size="10px" fill="#000" opacity="1"/><text text-anchor="middle" transform="translate(359.86266724480254,15)" font-family="sans-serif" font-size="10px" fill="#000" opacity="1"/><text text-anchor="middle" transform="translate(370.42016671781914,15)" font-family="sans-serif" font-size="10px" fill="#000" opacity="1"/><text text-anchor="middle" transform="translate(379.34640533523424,15)" font-family="sans-serif" font-size="10px" fill="#000" opacity="1"/><text text-anchor="middle" transform="translate(387.07866493225913,15)" font-family="sans-serif" font-size="10px" fill="#000" opacity="1"/><text text-anchor="middle" transform="translate(393.8990012585767,15)" font-family="sans-serif" font-size="10px" fill="#000" opacity="1"/><text text-anchor="middle" transform="translate(400,15)" font-family="sans-serif" font-size="10px" fill="#000" opacity="1">1,000</text><text text-anchor="middle" transform="translate(440.1373327551975,15)" font-family="sans-serif" font-size="10px" fill="#000" opacity="1"/><text text-anchor="middle" transform="translate(463.616167295955,15)" font-family="sans-serif" font-size="10px" fill="#000" opacity="1"/><text text-anchor="middle" transform="translate(480.274665510395,15)" font-family="sans-serif" font-size="10px" fill="#000" opacity="1"/><text text-anchor="middle" transform="translate(493.19600057813585,15)" font-family="sans-serif" font-size="10px" fill="#000" opacity="1"/><text text-anchor="middle" transform="translate(503.7535000511524,15)" font-family="sans-serif" font-size="10px" fill="#000" opacity="1"/><text text-anchor="middle" transform="translate(512.6797386685677,15)" font-family="sans-serif" font-size="10px" fill="#000" opacity="1"/><text text-anchor="middle" transform="translate(520.4119982655925,15)" font-family="sans-serif" font-size="10px" fill="#000" opacity="1"/><text text-anchor="middle" transform="translate(527.2323345919101,15)" font-family="sans-serif" font-size="10px" fill="#000" opacity="1"/><text text-anchor="middle" transform="translate(533.3333333333334,15)" font-family="sans-serif" font-size="10px" fill="#000" opacity="1">10,000</text><text text-anchor="middle" transform="translate(573.4706660885308,15)" font-family="sans-serif" font-size="10px" fill="#000" opacity="1"/><text text-anchor="middle" transform="translate(596.9495006292884,15)" font-family="sans-serif" font-size="10px" fill="#000" opacity="1"/><text text-anchor="middle" transform="translate(613.6079988437283,15)" font-family="sans-serif" font-size="10px" fill="#000" opacity="1"/><text text-anchor="middle" transform="translate(626.5293339114692,15)" font-family="sans-serif" font-size="10px" fill="#000" opacity="1"/><text text-anchor="middle" transform="translate(637.0868333844858,15)" font-family="sans-serif" font-size="10px" fill="#000" opacity="1"/><text text-anchor="middle" transform="translate(646.0130720019009,15)" font-family="sans-serif" font-size="10px" fill="#000" opacity="1"/><text text-anchor="middle" transform="translate(653.7453315989258,15)" font-family="sans-serif" font-size="10px" fill="#000" opacity="1"/><text text-anchor="middle" transform="translate(660.5656679252434,15)" font-family="sans-serif" font-size="10px" fill="#000" opacity="1"/><text text-anchor="middle" transform="translate(666.6666666666667,15)" font-family="sans-serif" font-size="10px" fill="#000" opacity="1">100,000</text><text text-anchor="middle" transform="translate(706.8039994218642,15)" font-family="sans-serif" font-size="10px" fill="#000" opacity="1"/><text text-anchor="middle" transform="translate(730.2828339626217,15)" font-family="sans-serif" font-size="10px" fill="#000" opacity="1"/><text text-anchor="middle" transform="translate(746.9413321770617,15)" font-family="sans-serif" font-size="10px" fill="#000" opacity="1"/><text text-anchor="middle" transform="translate(759.8626672448024,15)" font-family="sans-serif" font-size="10px" fill="#000" opacity="1"/><text text-anchor="middle" transform="translate(770.4201667178191,15)" font-family="sans-serif" font-size="10px" fill="#000" opacity="1"/><text text-anchor="middle" transform="translate(779.3464053352343,15)" font-family="sans-serif" font-size="10px" fill="#000" opacity="1"/><text text-anchor="middle" transform="translate(787.0786649322592,15)" font-family="sans-serif" font-size="10px" fill="#000" opacity="1"/><text text-anchor="middle" transform="translate(793.8990012585767,15)" font-family="sans-serif" font-size="10px" fill="#000" opacity="1"/><text text-anchor="end" transform="translate(800,15)" font-family="sans-serif" font-size="10px" fill="#000" opacity="1">1,000,000</text></g><g class="mark-rule role-axis-domain" pointer-events="none"><line transform="translate(0,0)" x2="800" y2="0" stroke="#888" stroke-width="1" opacity="1"/></g><g class="mark-text role-axis-title" pointer-events="none"><text text-anchor="middle" transform="translate(400,30)" font-family="sans-serif" font-size="11px" font-weight="bold" fill="#000" opacity="1">n-elems</text></g></g><path class="foreground" aria-hidden="true" d="" pointer-events="none" display="none"/></g></g><g class="mark-group role-axis" role="graphics-symbol" aria-roledescription="axis" aria-label="Y-axis titled 'norm-mean-μs' for a linear scale with values from 0.0 to 1.8"><g transform="translate(0.5,0.5)"><path class="background" aria-hidden="true" d="M0,0h0v0h0Z" pointer-events="none"/><g><g class="mark-rule role-axis-tick" pointer-events="none"><line transform="translate(0,600)" x2="-5" y2="0" stroke="#888" stroke-width="1" opacity="1"/><line transform="translate(0,567)" x2="-5" y2="0" stroke="#888" stroke-width="1" opacity="1"/><line transform="translate(0,533)" x2="-5" y2="0" stroke="#888" stroke-width="1" opacity="1"/><line transform="translate(0,500)" x2="-5" y2="0" stroke="#888" stroke-width="1" opacity="1"/><line transform="translate(0,467)" x2="-5" y2="0" stroke="#888" stroke-width="1" opacity="1"/><line transform="translate(0,433)" x2="-5" y2="0" stroke="#888" stroke-width="1" opacity="1"/><line transform="translate(0,400)" x2="-5" y2="0" stroke="#888" stroke-width="1" opacity="1"/><line transform="translate(0,367)" x2="-5" y2="0" stroke="#888" stroke-width="1" opacity="1"/><line transform="translate(0,333)" x2="-5" y2="0" stroke="#888" stroke-width="1" opacity="1"/><line transform="translate(0,300)" x2="-5" y2="0" stroke="#888" stroke-width="1" opacity="1"/><line transform="translate(0,267)" x2="-5" y2="0" stroke="#888" stroke-width="1" opacity="1"/><line transform="translate(0,233)" x2="-5" y2="0" stroke="#888" stroke-width="1" opacity="1"/><line transform="translate(0,200)" x2="-5" y2="0" stroke="#888" stroke-width="1" opacity="1"/><line transform="translate(0,167)" x2="-5" y2="0" stroke="#888" stroke-width="1" opacity="1"/><line transform="translate(0,133)" x2="-5" y2="0" stroke="#888" stroke-width="1" opacity="1"/><line transform="translate(0,100)" x2="-5" y2="0" stroke="#888" stroke-width="1" opacity="1"/><line transform="translate(0,67)" x2="-5" y2="0" stroke="#888" stroke-width="1" opacity="1"/><line transform="translate(0,33)" x2="-5" y2="0" stroke="#888" stroke-width="1" opacity="1"/><line transform="translate(0,0)" x2="-5" y2="0" stroke="#888" stroke-width="1" opacity="1"/></g><g class="mark-text role-axis-label" pointer-events="none"><text text-anchor="end" transform="translate(-7,603)" font-family="sans-serif" font-size="10px" fill="#000" opacity="1">0.0</text><text text-anchor="end" transform="translate(-7,569.6666666666666)" font-family="sans-serif" font-size="10px" fill="#000" opacity="1">0.1</text><text text-anchor="end" transform="translate(-7,536.3333333333333)" font-family="sans-serif" font-size="10px" fill="#000" opacity="1">0.2</text><text text-anchor="end" transform="translate(-7,503)" font-family="sans-serif" font-size="10px" fill="#000" opacity="1">0.3</text><text text-anchor="end" transform="translate(-7,469.6666666666667)" font-family="sans-serif" font-size="10px" fill="#000" opacity="1">0.4</text><text text-anchor="end" transform="translate(-7,436.3333333333333)" font-family="sans-serif" font-size="10px" fill="#000" opacity="1">0.5</text><text text-anchor="end" transform="translate(-7,403.00000000000006)" font-family="sans-serif" font-size="10px" fill="#000" opacity="1">0.6</text><text text-anchor="end" transform="translate(-7,369.6666666666667)" font-family="sans-serif" font-size="10px" fill="#000" opacity="1">0.7</text><text text-anchor="end" transform="translate(-7,336.33333333333337)" font-family="sans-serif" font-size="10px" fill="#000" opacity="1">0.8</text><text text-anchor="end" transform="translate(-7,303)" font-family="sans-serif" font-size="10px" fill="#000" opacity="1">0.9</text><text text-anchor="end" transform="translate(-7,269.66666666666663)" font-family="sans-serif" font-size="10px" fill="#000" opacity="1">1.0</text><text text-anchor="end" transform="translate(-7,236.33333333333331)" font-family="sans-serif" font-size="10px" fill="#000" opacity="1">1.1</text><text text-anchor="end" transform="translate(-7,203.00000000000003)" font-family="sans-serif" font-size="10px" fill="#000" opacity="1">1.2</text><text text-anchor="end" transform="translate(-7,169.66666666666669)" font-family="sans-serif" font-size="10px" fill="#000" opacity="1">1.3</text><text text-anchor="end" transform="translate(-7,136.3333333333334)" font-family="sans-serif" font-size="10px" fill="#000" opacity="1">1.4</text><text text-anchor="end" transform="translate(-7,103.00000000000004)" font-family="sans-serif" font-size="10px" fill="#000" opacity="1">1.5</text><text text-anchor="end" transform="translate(-7,69.66666666666663)" font-family="sans-serif" font-size="10px" fill="#000" opacity="1">1.6</text><text text-anchor="end" transform="translate(-7,36.33333333333335)" font-family="sans-serif" font-size="10px" fill="#000" opacity="1">1.7</text><text text-anchor="end" transform="translate(-7,3)" font-family="sans-serif" font-size="10px" fill="#000" opacity="1">1.8</text></g><g class="mark-rule role-axis-domain" pointer-events="none"><line transform="translate(0,600)" x2="0" y2="-600" stroke="#888" stroke-width="1" opacity="1"/></g><g class="mark-text role-axis-title" pointer-events="none"><text text-anchor="middle" transform="translate(-35,300) rotate(-90) translate(0,-2)" font-family="sans-serif" font-size="11px" font-weight="bold" fill="#000" opacity="1">norm-mean-μs</text></g></g><path class="foreground" aria-hidden="true" d="" pointer-events="none" display="none"/></g></g><g class="mark-group role-scope layer_0_pathgroup" role="graphics-object" aria-roledescription="group mark container"><g transform="translate(0,0)"><path class="background" aria-hidden="true" d="M0,0h800v600h-800Z"/><g><g class="mark-line role-mark layer_0_marks" role="graphics-object" aria-roledescription="line mark container"><path aria-label="norm-mean-μs: 1; n-elems: 4; datastructure: clj" role="graphics-symbol" aria-roledescription="line mark" d="M80.27466551039498,266.66666666666663L133.33333333333334,266.66666666666663L266.6666666666667,266.66666666666663L400,266.66666666666663L533.3333333333334,266.66666666666663L666.6666666666667,266.66666666666663L800,266.66666666666663" stroke="#4c78a8" stroke-width="2"/></g></g><path class="foreground" aria-hidden="true" d="" display="none"/></g><g transform="translate(0,0)"><path class="background" aria-hidden="true" d="M0,0h800v600h-800Z"/><g><g class="mark-line role-mark layer_0_marks" role="graphics-object" aria-roledescription="line mark container"><path aria-label="norm-mean-μs: 1.74897073907; n-elems: 4; datastructure: hamf" role="graphics-symbol" aria-roledescription="line mark" d="M80.27466551039498,17.009753643067206L133.33333333333334,222.97696639155876L266.6666666666667,454.8587539785539L400,445.68221180782336L533.3333333333334,463.5485968617779L666.6666666666667,465.98281119610215L800,453.3040492457269" stroke="#f58518" stroke-width="2"/></g></g><path class="foreground" aria-hidden="true" d="" display="none"/></g><g transform="translate(0,0)"><path class="background" aria-hidden="true" d="M0,0h800v600h-800Z"/><g><g class="mark-line role-mark layer_0_marks" role="graphics-object" aria-roledescription="line mark container"><path aria-label="norm-mean-μs: 1.02805715953; n-elems: 4; datastructure: hamf-objarry" role="graphics-symbol" aria-roledescription="line mark" d="M80.27466551039498,257.3142801561759L133.33333333333334,415.384540740111L266.6666666666667,475.03984599357705L400,461.34286607454453L533.3333333333334,479.3645643101097L666.6666666666667,467.7281960363432L800,297.5886079682817" stroke="#e45756" stroke-width="2"/></g></g><path class="foreground" aria-hidden="true" d="" display="none"/></g></g><g class="mark-symbol role-mark layer_1_marks" role="graphics-object" aria-roledescription="symbol mark container"><path aria-label="norm-mean-μs: 1; n-elems: 4; datastructure: clj" role="graphics-symbol" aria-roledescription="point" transform="translate(80.27466551039498,266.66666666666663)" d="M2.7386127875258306,0A2.7386127875258306,2.7386127875258306,0,1,1,-2.7386127875258306,0A2.7386127875258306,2.7386127875258306,0,1,1,2.7386127875258306,0" fill="#4c78a8" stroke-width="2" opacity="1"/><path aria-label="norm-mean-μs: 1; n-elems: 10; datastructure: clj" role="graphics-symbol" aria-roledescription="point" transform="translate(133.33333333333334,266.66666666666663)" d="M2.7386127875258306,0A2.7386127875258306,2.7386127875258306,0,1,1,-2.7386127875258306,0A2.7386127875258306,2.7386127875258306,0,1,1,2.7386127875258306,0" fill="#4c78a8" stroke-width="2" opacity="1"/><path aria-label="norm-mean-μs: 1; n-elems: 100; datastructure: clj" role="graphics-symbol" aria-roledescription="point" transform="translate(266.6666666666667,266.66666666666663)" d="M2.7386127875258306,0A2.7386127875258306,2.7386127875258306,0,1,1,-2.7386127875258306,0A2.7386127875258306,2.7386127875258306,0,1,1,2.7386127875258306,0" fill="#4c78a8" stroke-width="2" opacity="1"/><path aria-label="norm-mean-μs: 1; n-elems: 1000; datastructure: clj" role="graphics-symbol" aria-roledescription="point" transform="translate(400,266.66666666666663)" d="M2.7386127875258306,0A2.7386127875258306,2.7386127875258306,0,1,1,-2.7386127875258306,0A2.7386127875258306,2.7386127875258306,0,1,1,2.7386127875258306,0" fill="#4c78a8" stroke-width="2" opacity="1"/><path aria-label="norm-mean-μs: 1; n-elems: 10000; datastructure: clj" role="graphics-symbol" aria-roledescription="point" transform="translate(533.3333333333334,266.66666666666663)" d="M2.7386127875258306,0A2.7386127875258306,2.7386127875258306,0,1,1,-2.7386127875258306,0A2.7386127875258306,2.7386127875258306,0,1,1,2.7386127875258306,0" fill="#4c78a8" stroke-width="2" opacity="1"/><path aria-label="norm-mean-μs: 1; n-elems: 100000; datastructure: clj" role="graphics-symbol" aria-roledescription="point" transform="translate(666.6666666666667,266.66666666666663)" d="M2.7386127875258306,0A2.7386127875258306,2.7386127875258306,0,1,1,-2.7386127875258306,0A2.7386127875258306,2.7386127875258306,0,1,1,2.7386127875258306,0" fill="#4c78a8" stroke-width="2" opacity="1"/><path aria-label="norm-mean-μs: 1; n-elems: 1000000; datastructure: clj" role="graphics-symbol" aria-roledescription="point" transform="translate(800,266.66666666666663)" d="M2.7386127875258306,0A2.7386127875258306,2.7386127875258306,0,1,1,-2.7386127875258306,0A2.7386127875258306,2.7386127875258306,0,1,1,2.7386127875258306,0" fill="#4c78a8" stroke-width="2" opacity="1"/><path aria-label="norm-mean-μs: 1.74897073907; n-elems: 4; datastructure: hamf" role="graphics-symbol" aria-roledescription="point" transform="translate(80.27466551039498,17.009753643067206)" d="M-2.7386127875258306,-2.7386127875258306h5.477225575051661v5.477225575051661h-5.477225575051661Z" fill="#f58518" stroke-width="2" opacity="1"/><path aria-label="norm-mean-μs: 1.13106910083; n-elems: 10; datastructure: hamf" role="graphics-symbol" aria-roledescription="point" transform="translate(133.33333333333334,222.97696639155876)" d="M-2.7386127875258306,-2.7386127875258306h5.477225575051661v5.477225575051661h-5.477225575051661Z" fill="#f58518" stroke-width="2" opacity="1"/><path aria-label="norm-mean-μs: 0.435423738064; n-elems: 100; datastructure: hamf" role="graphics-symbol" aria-roledescription="point" transform="translate(266.6666666666667,454.8587539785539)" d="M-2.7386127875258306,-2.7386127875258306h5.477225575051661v5.477225575051661h-5.477225575051661Z" fill="#f58518" stroke-width="2" opacity="1"/><path aria-label="norm-mean-μs: 0.462953364577; n-elems: 1000; datastructure: hamf" role="graphics-symbol" aria-roledescription="point" transform="translate(400,445.68221180782336)" d="M-2.7386127875258306,-2.7386127875258306h5.477225575051661v5.477225575051661h-5.477225575051661Z" fill="#f58518" stroke-width="2" opacity="1"/><path aria-label="norm-mean-μs: 0.409354209415; n-elems: 10000; datastructure: hamf" role="graphics-symbol" aria-roledescription="point" transform="translate(533.3333333333334,463.5485968617779)" d="M-2.7386127875258306,-2.7386127875258306h5.477225575051661v5.477225575051661h-5.477225575051661Z" fill="#f58518" stroke-width="2" opacity="1"/><path aria-label="norm-mean-μs: 0.402051566412; n-elems: 100000; datastructure: hamf" role="graphics-symbol" aria-roledescription="point" transform="translate(666.6666666666667,465.98281119610215)" d="M-2.7386127875258306,-2.7386127875258306h5.477225575051661v5.477225575051661h-5.477225575051661Z" fill="#f58518" stroke-width="2" opacity="1"/><path aria-label="norm-mean-μs: 0.440087852263; n-elems: 1000000; datastructure: hamf" role="graphics-symbol" aria-roledescription="point" transform="translate(800,453.3040492457269)" d="M-2.7386127875258306,-2.7386127875258306h5.477225575051661v5.477225575051661h-5.477225575051661Z" fill="#f58518" stroke-width="2" opacity="1"/><path aria-label="norm-mean-μs: 1.02805715953; n-elems: 4; datastructure: hamf-objarry" role="graphics-symbol" aria-roledescription="point" transform="translate(80.27466551039498,257.3142801561759)" d="M0,-2.3717082451262845L-2.7386127875258306,2.3717082451262845L2.7386127875258306,2.3717082451262845Z" fill="#e45756" stroke-width="2" opacity="1"/><path aria-label="norm-mean-μs: 0.55384637778; n-elems: 10; datastructure: hamf-objarry" role="graphics-symbol" aria-roledescription="point" transform="translate(133.33333333333334,415.384540740111)" d="M0,-2.3717082451262845L-2.7386127875258306,2.3717082451262845L2.7386127875258306,2.3717082451262845Z" fill="#e45756" stroke-width="2" opacity="1"/><path aria-label="norm-mean-μs: 0.374880462019; n-elems: 100; datastructure: hamf-objarry" role="graphics-symbol" aria-roledescription="point" transform="translate(266.6666666666667,475.03984599357705)" d="M0,-2.3717082451262845L-2.7386127875258306,2.3717082451262845L2.7386127875258306,2.3717082451262845Z" fill="#e45756" stroke-width="2" opacity="1"/><path aria-label="norm-mean-μs: 0.415971401776; n-elems: 1000; datastructure: hamf-objarry" role="graphics-symbol" aria-roledescription="point" transform="translate(400,461.34286607454453)" d="M0,-2.3717082451262845L-2.7386127875258306,2.3717082451262845L2.7386127875258306,2.3717082451262845Z" fill="#e45756" stroke-width="2" opacity="1"/><path aria-label="norm-mean-μs: 0.36190630707; n-elems: 10000; datastructure: hamf-objarry" role="graphics-symbol" aria-roledescription="point" transform="translate(533.3333333333334,479.3645643101097)" d="M0,-2.3717082451262845L-2.7386127875258306,2.3717082451262845L2.7386127875258306,2.3717082451262845Z" fill="#e45756" stroke-width="2" opacity="1"/><path aria-label="norm-mean-μs: 0.396815411891; n-elems: 100000; datastructure: hamf-objarry" role="graphics-symbol" aria-roledescription="point" transform="translate(666.6666666666667,467.7281960363432)" d="M0,-2.3717082451262845L-2.7386127875258306,2.3717082451262845L2.7386127875258306,2.3717082451262845Z" fill="#e45756" stroke-width="2" opacity="1"/><path aria-label="norm-mean-μs: 0.907234176095; n-elems: 1000000; datastructure: hamf-objarry" role="graphics-symbol" aria-roledescription="point" transform="translate(800,297.5886079682817)" d="M0,-2.3717082451262845L-2.7386127875258306,2.3717082451262845L2.7386127875258306,2.3717082451262845Z" fill="#e45756" stroke-width="2" opacity="1"/></g><g class="mark-group role-legend" role="graphics-symbol" aria-roledescription="legend" aria-label="Symbol legend titled 'datastructure' for fill color and stroke color with 3 values: clj, hamf, hamf-objarry"><g transform="translate(820,0)"><path class="background" aria-hidden="true" d="M0,0h114v61h-114Z" pointer-events="none"/><g><g class="mark-group role-legend-entry"><g transform="translate(0,16)"><path class="background" aria-hidden="true" d="M0,0h0v0h0Z" pointer-events="none"/><g><g class="mark-group role-scope" role="graphics-object" aria-roledescription="group mark container"><g transform="translate(0,0)"><path class="background" aria-hidden="true" d="M0,0h112v12.5h-112Z" pointer-events="none" opacity="1"/><g><g class="mark-symbol role-legend-symbol" pointer-events="none"><path transform="translate(6,6)" d="M5,0A5,5,0,1,1,-5,0A5,5,0,1,1,5,0" fill="#4c78a8" stroke="#4c78a8" stroke-width="1.5" opacity="1"/></g><g class="mark-text role-legend-label" pointer-events="none"><text text-anchor="start" transform="translate(16,9)" font-family="sans-serif" font-size="10px" fill="#000" opacity="1">clj</text></g></g><path class="foreground" aria-hidden="true" d="" pointer-events="none" display="none"/></g><g transform="translate(0,16)"><path class="background" aria-hidden="true" d="M0,0h112v12.5h-112Z" pointer-events="none" opacity="1"/><g><g class="mark-symbol role-legend-symbol" pointer-events="none"><path transform="translate(6,6)" d="M5,0A5,5,0,1,1,-5,0A5,5,0,1,1,5,0" fill="#f58518" stroke="#f58518" stroke-width="1.5" opacity="1"/></g><g class="mark-text role-legend-label" pointer-events="none"><text text-anchor="start" transform="translate(16,9)" font-family="sans-serif" font-size="10px" fill="#000" opacity="1">hamf</text></g></g><path class="foreground" aria-hidden="true" d="" pointer-events="none" display="none"/></g><g transform="translate(0,32)"><path class="background" aria-hidden="true" d="M0,0h112v12.5h-112Z" pointer-events="none" opacity="1"/><g><g class="mark-symbol role-legend-symbol" pointer-events="none"><path transform="translate(6,6)" d="M5,0A5,5,0,1,1,-5,0A5,5,0,1,1,5,0" fill="#e45756" stroke="#e45756" stroke-width="1.5" opacity="1"/></g><g class="mark-text role-legend-label" pointer-events="none"><text text-anchor="start" transform="translate(16,9)" font-family="sans-serif" font-size="10px" fill="#000" opacity="1">hamf-objarry</text></g></g><path class="foreground" aria-hidden="true" d="" pointer-events="none" display="none"/></g></g></g><path class="foreground" aria-hidden="true" d="" pointer-events="none" display="none"/></g></g><g class="mark-text role-legend-title" pointer-events="none"><text text-anchor="start" transform="translate(0,9)" font-family="sans-serif" font-size="11px" font-weight="bold" fill="#000" opacity="1">datastructure</text></g></g><path class="foreground" aria-hidden="true" d="" pointer-events="none" display="none"/></g></g><g class="mark-group role-legend" role="graphics-symbol" aria-roledescription="legend" aria-label="Symbol legend titled 'datastructure' for shape with 3 values: clj, hamf, hamf-objarry"><g transform="translate(820,69)"><path class="background" aria-hidden="true" d="M0,0h114v59h-114Z" pointer-events="none"/><g><g class="mark-group role-legend-entry"><g transform="translate(0,16)"><path class="background" aria-hidden="true" d="M0,0h0v0h0Z" pointer-events="none"/><g><g class="mark-group role-scope" role="graphics-object" aria-roledescription="group mark container"><g transform="translate(0,0)"><path class="background" aria-hidden="true" d="M0,0h112v12.5h-112Z" pointer-events="none" opacity="1"/><g><g class="mark-symbol role-legend-symbol" pointer-events="none"><path transform="translate(6,6)" d="M5,0A5,5,0,1,1,-5,0A5,5,0,1,1,5,0" fill="black" fill-opacity="1" stroke-width="1.5" opacity="1"/></g><g class="mark-text role-legend-label" pointer-events="none"><text text-anchor="start" transform="translate(16,9)" font-family="sans-serif" font-size="10px" fill="#000" opacity="1">clj</text></g></g><path class="foreground" aria-hidden="true" d="" pointer-events="none" display="none"/></g><g transform="translate(0,16)"><path class="background" aria-hidden="true" d="M0,0h112v12.5h-112Z" pointer-events="none" opacity="1"/><g><g class="mark-symbol role-legend-symbol" pointer-events="none"><path transform="translate(6,6)" d="M-5,-5h10v10h-10Z" fill="black" fill-opacity="1" stroke-width="1.5" opacity="1"/></g><g class="mark-text role-legend-label" pointer-events="none"><text text-anchor="start" transform="translate(16,9)" font-family="sans-serif" font-size="10px" fill="#000" opacity="1">hamf</text></g></g><path class="foreground" aria-hidden="true" d="" pointer-events="none" display="none"/></g><g transform="translate(0,31)"><path class="background" aria-hidden="true" d="M0,0h112v11.830127018922191h-112Z" pointer-events="none" opacity="1"/><g><g class="mark-symbol role-legend-symbol" pointer-events="none"><path transform="translate(6,6)" d="M0,-4.330127018922193L-5,4.330127018922193L5,4.330127018922193Z" fill="black" fill-opacity="1" stroke-width="1.5" opacity="1"/></g><g class="mark-text role-legend-label" pointer-events="none"><text text-anchor="start" transform="translate(16,9)" font-family="sans-serif" font-size="10px" fill="#000" opacity="1">hamf-objarry</text></g></g><path class="foreground" aria-hidden="true" d="" pointer-events="none" display="none"/></g></g></g><path class="foreground" aria-hidden="true" d="" pointer-events="none" display="none"/></g></g><g class="mark-text role-legend-title" pointer-events="none"><text text-anchor="start" transform="translate(0,9)" font-family="sans-serif" font-size="11px" font-weight="bold" fill="#000" opacity="1">datastructure</text></g></g><path class="foreground" aria-hidden="true" d="" pointer-events="none" display="none"/></g></g><g class="mark-group role-title"><g transform="translate(400,-22)"><path class="background" aria-hidden="true" d="M0,0h0v0h0Z" pointer-events="none"/><g><g class="mark-text role-title-text" role="graphics-symbol" aria-roledescription="title" aria-label="Title text 'concatv-numeric'" pointer-events="none"><text text-anchor="middle" transform="translate(0,10)" font-family="sans-serif" font-size="13px" font-weight="bold" fill="#000" opacity="1">concatv-numeric</text></g></g><path class="foreground" aria-hidden="true" d="" pointer-events="none" display="none"/></g></g></g><path class="foreground" aria-hidden="true" d="" display="none"/></g></g></g></svg>