<svg xmlns="http://www.w3.org/2000/svg" xmlns:xlink="http://www.w3.org/1999/xlink" version="1.1" class="marks" width="990" height="664" viewBox="0 0 990 664"><rect width="990" height="664" fill="white"/><g fill="none" stroke-miterlimit="10" transform="translate(51,27)"><g class="mark-group role-frame root" role="graphics-object" aria-roledescription="group mark container"><g transform="translate(0,0)"><path class="background" aria-hidden="true" d="M0.5,0.5h800v600h-800Z" stroke="#ddd"/><g><g class="mark-group role-axis" aria-hidden="true"><g transform="translate(0.5,600.5)"><path class="background" aria-hidden="true" d="M0,0h0v0h0Z" pointer-events="none"/><g><g class="mark-rule role-axis-grid" pointer-events="none"><line transform="translate(0,-600)" x2="0" y2="600" stroke="#ddd" stroke-width="1" opacity="1"/><line transform="translate(40,-600)" x2="0" y2="600" stroke="#ddd" stroke-width="1" opacity="1"/><line transform="translate(64,-600)" x2="0" y2="600" stroke="#ddd" stroke-width="1" opacity="1"/><line transform="translate(80,-600)" x2="0" y2="600" stroke="#ddd" stroke-width="1" opacity="1"/><line transform="translate(93,-600)" x2="0" y2="600" stroke="#ddd" stroke-width="1" opacity="1"/><line transform="translate(104,-600)" x2="0" y2="600" stroke="#ddd" stroke-width="1" opacity="1"/><line transform="translate(113,-600)" x2="0" y2="600" stroke="#ddd" stroke-width="1" opacity="1"/><line transform="translate(120,-600)" x2="0" y2="600" stroke="#ddd" stroke-width="1" opacity="1"/><line transform="translate(127,-600)" x2="0" y2="600" stroke="#ddd" stroke-width="1" opacity="1"/><line transform="translate(133,-600)" x2="0" y2="600" stroke="#ddd" stroke-width="1" opacity="1"/><line transform="translate(173,-600)" x2="0" y2="600" stroke="#ddd" stroke-width="1" opacity="1"/><line transform="translate(197,-600)" x2="0" y2="600" stroke="#ddd" stroke-width="1" opacity="1"/><line transform="translate(214,-600)" x2="0" y2="600" stroke="#ddd" stroke-width="1" opacity="1"/><line transform="translate(227,-600)" x2="0" y2="600" stroke="#ddd" stroke-width="1" opacity="1"/><line transform="translate(237,-600)" x2="0" y2="600" stroke="#ddd" stroke-width="1" opacity="1"/><line transform="translate(246,-600)" x2="0" y2="600" stroke="#ddd" stroke-width="1" opacity="1"/><line transform="translate(254,-600)" x2="0" y2="600" stroke="#ddd" stroke-width="1" opacity="1"/><line transform="translate(261,-600)" x2="0" y2="600" stroke="#ddd" stroke-width="1" opacity="1"/><line transform="translate(267,-600)" x2="0" y2="600" stroke="#ddd" stroke-width="1" opacity="1"/><line transform="translate(307,-600)" x2="0" y2="600" stroke="#ddd" stroke-width="1" opacity="1"/><line transform="translate(330,-600)" x2="0" y2="600" stroke="#ddd" stroke-width="1" opacity="1"/><line transform="translate(347,-600)" x2="0" y2="600" stroke="#ddd" stroke-width="1" opacity="1"/><line transform="translate(360,-600)" x2="0" y2="600" stroke="#ddd" stroke-width="1" opacity="1"/><line transform="translate(370,-600)" x2="0" y2="600" stroke="#ddd" stroke-width="1" opacity="1"/><line transform="translate(379,-600)" x2="0" y2="600" stroke="#ddd" stroke-width="1" opacity="1"/><line transform="translate(387,-600)" x2="0" y2="600" stroke="#ddd" stroke-width="1" opacity="1"/><line transform="translate(394,-600)" x2="0" y2="600" stroke="#ddd" stroke-width="1" opacity="1"/><line transform="translate(400,-600)" x2="0" y2="600" stroke="#ddd" stroke-width="1" opacity="1"/><line transform="translate(440,-600)" x2="0" y2="600" stroke="#ddd" stroke-width="1" opacity="1"/><line transform="translate(464,-600)" x2="0" y2="600" stroke="#ddd" stroke-width="1" opacity="1"/><line transform="translate(480,-600)" x2="0" y2="600" stroke="#ddd" stroke-width="1" opacity="1"/><line transform="translate(493,-600)" x2="0" y2="600" stroke="#ddd" stroke-width="1" opacity="1"/><line transform="translate(504,-600)" x2="0" y2="600" stroke="#ddd" stroke-width="1" opacity="1"/><line transform="translate(513,-600)" x2="0" y2="600" stroke="#ddd" stroke-width="1" opacity="1"/><line transform="translate(520,-600)" x2="0" y2="600" stroke="#ddd" stroke-width="1" opacity="1"/><line transform="translate(527,-600)" x2="0" y2="600" stroke="#ddd" stroke-width="1" opacity="1"/><line transform="translate(533,-600)" x2="0" y2="600" stroke="#ddd" stroke-width="1" opacity="1"/><line transform="translate(573,-600)" x2="0" y2="600" stroke="#ddd" stroke-width="1" opacity="1"/><line transform="translate(597,-600)" x2="0" y2="600" stroke="#ddd" stroke-width="1" opacity="1"/><line transform="translate(614,-600)" x2="0" y2="600" stroke="#ddd" stroke-width="1" opacity="1"/><line transform="translate(627,-600)" x2="0" y2="600" stroke="#ddd" stroke-width="1" opacity="1"/><line transform="translate(637,-600)" x2="0" y2="600" stroke="#ddd" stroke-width="1" opacity="1"/><line transform="translate(646,-600)" x2="0" y2="600" stroke="#ddd" stroke-width="1" opacity="1"/><line transform="translate(654,-600)" x2="0" y2="600" stroke="#ddd" stroke-width="1" opacity="1"/><line transform="translate(661,-600)" x2="0" y2="600" stroke="#ddd" stroke-width="1" opacity="1"/><line transform="translate(667,-600)" x2="0" y2="600" stroke="#ddd" stroke-width="1" opacity="1"/><line transform="translate(707,-600)" x2="0" y2="600" stroke="#ddd" stroke-width="1" opacity="1"/><line transform="translate(730,-600)" x2="0" y2="600" stroke="#ddd" stroke-width="1" opacity="1"/><line transform="translate(747,-600)" x2="0" y2="600" stroke="#ddd" stroke-width="1" opacity="1"/><line transform="translate(760,-600)" x2="0" y2="600" stroke="#ddd" stroke-width="1" opacity="1"/><line transform="translate(770,-600)" x2="0" y2="600" stroke="#ddd" stroke-width="1" opacity="1"/><line transform="translate(779,-600)" x2="0" y2="600" stroke="#ddd" stroke-width="1" opacity="1"/><line transform="translate(787,-600)" x2="0" y2="600" stroke="#ddd" stroke-width="1" opacity="1"/><line transform="translate(794,-600)" x2="0" y2="600" stroke="#ddd" stroke-width="1" opacity="1"/><line transform="translate(800,-600)" x2="0" y2="600" stroke="#ddd" stroke-width="1" opacity="1"/></g></g><path class="foreground" aria-hidden="true" d="" pointer-events="none" display="none"/></g></g><g class="mark-group role-axis" role="graphics-symbol" aria-roledescription="axis" aria-label="X-axis titled 'n-elems' for a log scale with values from 1 to 1,000,000"><g transform="translate(0.5,600.5)"><path class="background" aria-hidden="true" d="M0,0h0v0h0Z" pointer-events="none"/><g><g class="mark-rule role-axis-tick" pointer-events="none"><line transform="translate(0,0)" x2="0" y2="5" stroke="#888" stroke-width="1" opacity="1"/><line transform="translate(40,0)" x2="0" y2="5" stroke="#888" stroke-width="1" opacity="1"/><line transform="translate(64,0)" x2="0" y2="5" stroke="#888" stroke-width="1" opacity="1"/><line transform="translate(80,0)" x2="0" y2="5" stroke="#888" stroke-width="1" opacity="1"/><line transform="translate(93,0)" x2="0" y2="5" stroke="#888" stroke-width="1" opacity="1"/><line transform="translate(104,0)" x2="0" y2="5" stroke="#888" stroke-width="1" opacity="1"/><line transform="translate(113,0)" x2="0" y2="5" stroke="#888" stroke-width="1" opacity="1"/><line transform="translate(120,0)" x2="0" y2="5" stroke="#888" stroke-width="1" opacity="1"/><line transform="translate(127,0)" x2="0" y2="5" stroke="#888" stroke-width="1" opacity="1"/><line transform="translate(133,0)" x2="0" y2="5" stroke="#888" stroke-width="1" opacity="1"/><line transform="translate(173,0)" x2="0" y2="5" stroke="#888" stroke-width="1" opacity="1"/><line transform="translate(197,0)" x2="0" y2="5" stroke="#888" stroke-width="1" opacity="1"/><line transform="translate(214,0)" x2="0" y2="5" stroke="#888" stroke-width="1" opacity="1"/><line transform="translate(227,0)" x2="0" y2="5" stroke="#888" stroke-width="1" opacity="1"/><line transform="translate(237,0)" x2="0" y2="5" stroke="#888" stroke-width="1" opacity="1"/><line transform="translate(246,0)" x2="0" y2="5" stroke="#888" stroke-width="1" opacity="1"/><line transform="translate(254,0)" x2="0" y2="5" stroke="#888" stroke-width="1" opacity="1"/><line transform="translate(261,0)" x2="0" y2="5" stroke="#888" stroke-width="1" opacity="1"/><line transform="translate(267,0)" x2="0" y2="5" stroke="#888" stroke-width="1" opacity="1"/><line transform="translate(307,0)" x2="0" y2="5" stroke="#888" stroke-width="1" opacity="1"/><line transform="translate(330,0)" x2="0" y2="5" stroke="#888" stroke-width="1" opacity="1"/><line transform="translate(347,0)" x2="0" y2="5" stroke="#888" stroke-width="1" opacity="1"/><line transform="translate(360,0)" x2="0" y2="5" stroke="#888" stroke-width="1" opacity="1"/><line transform="translate(370,0)" x2="0" y2="5" stroke="#888" stroke-width="1" opacity="1"/><line transform="translate(379,0)" x2="0" y2="5" stroke="#888" stroke-width="1" opacity="1"/><line transform="translate(387,0)" x2="0" y2="5" stroke="#888" stroke-width="1" opacity="1"/><line transform="translate(394,0)" x2="0" y2="5" stroke="#888" stroke-width="1" opacity="1"/><line transform="translate(400,0)" x2="0" y2="5" stroke="#888" stroke-width="1" opacity="1"/><line transform="translate(440,0)" x2="0" y2="5" stroke="#888" stroke-width="1" opacity="1"/><line transform="translate(464,0)" x2="0" y2="5" stroke="#888" stroke-width="1" opacity="1"/><line transform="translate(480,0)" x2="0" y2="5" stroke="#888" stroke-width="1" opacity="1"/><line transform="translate(493,0)" x2="0" y2="5" stroke="#888" stroke-width="1" opacity="1"/><line transform="translate(504,0)" x2="0" y2="5" stroke="#888" stroke-width="1" opacity="1"/><line transform="translate(513,0)" x2="0" y2="5" stroke="#888" stroke-width="1" opacity="1"/><line transform="translate(520,0)" x2="0" y2="5" stroke="#888" stroke-width="1" opacity="1"/><line transform="translate(527,0)" x2="0" y2="5" stroke="#888" stroke-width="1" opacity="1"/><line transform="translate(533,0)" x2="0" y2="5" stroke="#888" stroke-width="1" opacity="1"/><line transform="translate(573,0)" x2="0" y2="5" stroke="#888" stroke-width="1" opacity="1"/><line transform="translate(597,0)" x2="0" y2="5" stroke="#888" stroke-width="1" opacity="1"/><line transform="translate(614,0)" x2="0" y2="5" stroke="#888" stroke-width="1" opacity="1"/><line transform="translate(627,0)" x2="0" y2="5" stroke="#888" stroke-width="1" opacity="1"/><line transform="translate(637,0)" x2="0" y2="5" stroke="#888" stroke-width="1" opacity="1"/><line transform="translate(646,0)" x2="0" y2="5" stroke="#888" stroke-width="1" opacity="1"/><line transform="translate(654,0)" x2="0" y2="5" stroke="#888" stroke-width="1" opacity="1"/><line transform="translate(661,0)" x2="0" y2="5" stroke="#888" stroke-width="1" opacity="1"/><line transform="translate(667,0)" x2="0" y2="5" stroke="#888" stroke-width="1" opacity="1"/><line transform="translate(707,0)" x2="0" y2="5" stroke="#888" stroke-width="1" opacity="1"/><line transform="translate(730,0)" x2="0" y2="5" stroke="#888" stroke-width="1" opacity="1"/><line transform="translate(747,0)" x2="0" y2="5" stroke="#888" stroke-width="1" opacity="1"/><line transform="translate(760,0)" x2="0" y2="5" stroke="#888" stroke-width="1" opacity="1"/><line transform="translate(770,0)" x2="0" y2="5" stroke="#888" stroke-width="1" opacity="1"/><line transform="translate(779,0)" x2="0" y2="5" stroke="#888" stroke-width="1" opacity="1"/><line transform="translate(787,0)" x2="0" y2="5" stroke="#888" stroke-width="1" opacity="1"/><line transform="translate(794,0)" x2="0" y2="5" stroke="#888" stroke-width="1" opacity="1"/><line transform="translate(800,0)" x2="0" y2="5" stroke="#888" stroke-width="1" opacity="1"/></g><g class="mark-text role-axis-label" pointer-events="none"><text text-anchor="start" transform="translate(0,15)" font-family="sans-serif" font-size="10px" fill="#000" opacity="1">1</text><text text-anchor="middle" transform="translate(40.13733275519749,15)" font-family="sans-serif" font-size="10px" fill="#000" opacity="1"/><text text-anchor="middle" transform="translate(63.616167295954995,15)" font-family="sans-serif" font-size="10px" fill="#000" opacity="1"/><text text-anchor="middle" transform="translate(80.27466551039498,15)" font-family="sans-serif" font-size="10px" fill="#000" opacity="1"/><text text-anchor="middle" transform="translate(93.19600057813584,15)" font-family="sans-serif" font-size="10px" fill="#000" opacity="1"/><text text-anchor="middle" transform="translate(103.75350005115249,15)" font-family="sans-serif" font-size="10px" fill="#000" opacity="1"/><text text-anchor="middle" transform="translate(112.67973866856758,15)" font-family="sans-serif" font-size="10px" fill="#000" opacity="1"/><text text-anchor="middle" transform="translate(120.41199826559247,15)" font-family="sans-serif" font-size="10px" fill="#000" opacity="1"/><text text-anchor="middle" transform="translate(127.23233459190999,15)" font-family="sans-serif" font-size="10px" fill="#000" opacity="1"/><text text-anchor="middle" transform="translate(133.33333333333334,15)" font-family="sans-serif" font-size="10px" fill="#000" opacity="1">10</text><text text-anchor="middle" transform="translate(173.47066608853083,15)" font-family="sans-serif" font-size="10px" fill="#000" opacity="1"/><text text-anchor="middle" transform="translate(196.94950062928834,15)" font-family="sans-serif" font-size="10px" fill="#000" opacity="1"/><text text-anchor="middle" transform="translate(213.60799884372832,15)" font-family="sans-serif" font-size="10px" fill="#000" opacity="1"/><text text-anchor="middle" transform="translate(226.52933391146917,15)" font-family="sans-serif" font-size="10px" fill="#000" opacity="1"/><text text-anchor="middle" transform="translate(237.08683338448583,15)" font-family="sans-serif" font-size="10px" fill="#000" opacity="1"/><text text-anchor="middle" transform="translate(246.01307200190092,15)" font-family="sans-serif" font-size="10px" fill="#000" opacity="1"/><text text-anchor="middle" transform="translate(253.74533159892582,15)" font-family="sans-serif" font-size="10px" fill="#000" opacity="1"/><text text-anchor="middle" transform="translate(260.5656679252433,15)" font-family="sans-serif" font-size="10px" fill="#000" opacity="1"/><text text-anchor="middle" transform="translate(266.6666666666667,15)" font-family="sans-serif" font-size="10px" fill="#000" opacity="1">100</text><text text-anchor="middle" transform="translate(306.80399942186415,15)" font-family="sans-serif" font-size="10px" fill="#000" opacity="1"/><text text-anchor="middle" transform="translate(330.2828339626217,15)" font-family="sans-serif" font-size="10px" fill="#000" opacity="1"/><text text-anchor="middle" transform="translate(346.94133217706167,15)" font-family="sans-serif" font-size="10px" fill="#000" opacity="1"/><text text-anchor="middle" transform="translate(359.86266724480254,15)" font-family="sans-serif" font-size="10px" fill="#000" opacity="1"/><text text-anchor="middle" transform="translate(370.42016671781914,15)" font-family="sans-serif" font-size="10px" fill="#000" opacity="1"/><text text-anchor="middle" transform="translate(379.34640533523424,15)" font-family="sans-serif" font-size="10px" fill="#000" opacity="1"/><text text-anchor="middle" transform="translate(387.07866493225913,15)" font-family="sans-serif" font-size="10px" fill="#000" opacity="1"/><text text-anchor="middle" transform="translate(393.8990012585767,15)" font-family="sans-serif" font-size="10px" fill="#000" opacity="1"/><text text-anchor="middle" transform="translate(400,15)" font-family="sans-serif" font-size="10px" fill="#000" opacity="1">1,000</text><text text-anchor="middle" transform="translate(440.1373327551975,15)" font-family="sans-serif" font-size="10px" fill="#000" opacity="1"/><text text-anchor="middle" transform="translate(463.616167295955,15)" font-family="sans-serif" font-size="10px" fill="#000" opacity="1"/><text text-anchor="middle" transform="translate(480.274665510395,15)" font-family="sans-serif" font-size="10px" fill="#000" opacity="1"/><text text-anchor="middle" transform="translate(493.19600057813585,15)" font-family="sans-serif" font-size="10px" fill="#000" opacity="1"/><text text-anchor="middle" transform="translate(503.7535000511524,15)" font-family="sans-serif" font-size="10px" fill="#000" opacity="1"/><text text-anchor="middle" transform="translate(512.6797386685677,15)" font-family="sans-serif" font-size="10px" fill="#000" opacity="1"/><text text-anchor="middle" transform="translate(520.4119982655925,15)" font-family="sans-serif" font-size="10px" fill="#000" opacity="1"/><text text-anchor="middle" transform="translate(527.2323345919101,15)" font-family="sans-serif" font-size="10px" fill="#000" opacity="1"/><text text-anchor="middle" transform="translate(533.3333333333334,15)" font-family="sans-serif" font-size="10px" fill="#000" opacity="1">10,000</text><text text-anchor="middle" transform="translate(573.4706660885308,15)" font-family="sans-serif" font-size="10px" fill="#000" opacity="1"/><text text-anchor="middle" transform="translate(596.9495006292884,15)" font-family="sans-serif" font-size="10px" fill="#000" opacity="1"/><text text-anchor="middle" transform="translate(613.6079988437283,15)" font-family="sans-serif" font-size="10px" fill="#000" opacity="1"/><text text-anchor="middle" transform="translate(626.5293339114692,15)" font-family="sans-serif" font-size="10px" fill="#000" opacity="1"/><text text-anchor="middle" transform="translate(637.0868333844858,15)" font-family="sans-serif" font-size="10px" fill="#000" opacity="1"/><text text-anchor="middle" transform="translate(646.0130720019009,15)" font-family="sans-serif" font-size="10px" fill="#000" opacity="1"/><text text-anchor="middle" transform="translate(653.7453315989258,15)" font-family="sans-serif" font-size="10px" fill="#000" opacity="1"/><text text-anchor="middle" transform="translate(660.5656679252434,15)" font-family="sans-serif" font-size="10px" fill="#000" opacity="1"/><text text-anchor="middle" transform="translate(666.6666666666667,15)" font-family="sans-serif" font-size="10px" fill="#000" opacity="1">100,000</text><text text-anchor="middle" transform="translate(706.8039994218642,15)" font-family="sans-serif" font-size="10px" fill="#000" opacity="1"/><text text-anchor="middle" transform="translate(730.2828339626217,15)" font-family="sans-serif" font-size="10px" fill="#000" opacity="1"/><text text-anchor="middle" transform="translate(746.9413321770617,15)" font-family="sans-serif" font-size="10px" fill="#000" opacity="1"/><text text-anchor="middle" transform="translate(759.8626672448024,15)" font-family="sans-serif" font-size="10px" fill="#000" opacity="1"/><text text-anchor="middle" transform="translate(770.4201667178191,15)" font-family="sans-serif" font-size="10px" fill="#000" opacity="1"/><text text-anchor="middle" transform="translate(779.3464053352343,15)" font-family="sans-serif" font-size="10px" fill="#000" opacity="1"/><text text-anchor="middle" transform="translate(787.0786649322592,15)" font-family="sans-serif" font-size="10px" fill="#000" opacity="1"/><text text-anchor="middle" transform="translate(793.8990012585767,15)" font-family="sans-serif" font-size="10px" fill="#000" opacity="1"/><text text-anchor="end" transform="translate(800,15)" font-family="sans-serif" font-size="10px" fill="#000" opacity="1">1,000,000</text></g><g class="mark-rule role-axis-domain" pointer-events="none"><line transform="translate(0,0)" x2="800" y2="0" stroke="#888" stroke-width="1" opacity="1"/></g><g class="mark-text role-axis-title" pointer-events="none"><text text-anchor="middle" transform="translate(400,30)" font-family="sans-serif" font-size="11px" font-weight="bold" fill="#000" opacity="1">n-elems</text></g></g><path class="foreground" aria-hidden="true" d="" pointer-events="none" display="none"/></g></g><g class="mark-group role-axis" role="graphics-symbol" aria-roledescription="axis" aria-label="Y-axis titled 'norm-mean-μs' for a linear scale with values from 0.0 to 1.6"><g transform="translate(0.5,0.5)"><path class="background" aria-hidden="true" d="M0,0h0v0h0Z" pointer-events="none"/><g><g class="mark-rule role-axis-tick" pointer-events="none"><line transform="translate(0,600)" x2="-5" y2="0" stroke="#888" stroke-width="1" opacity="1"/><line transform="translate(0,563)" x2="-5" y2="0" stroke="#888" stroke-width="1" opacity="1"/><line transform="translate(0,525)" x2="-5" y2="0" stroke="#888" stroke-width="1" opacity="1"/><line transform="translate(0,488)" x2="-5" y2="0" stroke="#888" stroke-width="1" opacity="1"/><line transform="translate(0,450)" x2="-5" y2="0" stroke="#888" stroke-width="1" opacity="1"/><line transform="translate(0,413)" x2="-5" y2="0" stroke="#888" stroke-width="1" opacity="1"/><line transform="translate(0,375)" x2="-5" y2="0" stroke="#888" stroke-width="1" opacity="1"/><line transform="translate(0,338)" x2="-5" y2="0" stroke="#888" stroke-width="1" opacity="1"/><line transform="translate(0,300)" x2="-5" y2="0" stroke="#888" stroke-width="1" opacity="1"/><line transform="translate(0,263)" x2="-5" y2="0" stroke="#888" stroke-width="1" opacity="1"/><line transform="translate(0,225)" x2="-5" y2="0" stroke="#888" stroke-width="1" opacity="1"/><line transform="translate(0,188)" x2="-5" y2="0" stroke="#888" stroke-width="1" opacity="1"/><line transform="translate(0,150)" x2="-5" y2="0" stroke="#888" stroke-width="1" opacity="1"/><line transform="translate(0,113)" x2="-5" y2="0" stroke="#888" stroke-width="1" opacity="1"/><line transform="translate(0,75)" x2="-5" y2="0" stroke="#888" stroke-width="1" opacity="1"/><line transform="translate(0,38)" x2="-5" y2="0" stroke="#888" stroke-width="1" opacity="1"/><line transform="translate(0,0)" x2="-5" y2="0" stroke="#888" stroke-width="1" opacity="1"/></g><g class="mark-text role-axis-label" pointer-events="none"><text text-anchor="end" transform="translate(-7,603)" font-family="sans-serif" font-size="10px" fill="#000" opacity="1">0.0</text><text text-anchor="end" transform="translate(-7,565.5)" font-family="sans-serif" font-size="10px" fill="#000" opacity="1">0.1</text><text text-anchor="end" transform="translate(-7,528)" font-family="sans-serif" font-size="10px" fill="#000" opacity="1">0.2</text><text text-anchor="end" transform="translate(-7,490.5)" font-family="sans-serif" font-size="10px" fill="#000" opacity="1">0.3</text><text text-anchor="end" transform="translate(-7,453)" font-family="sans-serif" font-size="10px" fill="#000" opacity="1">0.4</text><text text-anchor="end" transform="translate(-7,415.5)" font-family="sans-serif" font-size="10px" fill="#000" opacity="1">0.5</text><text text-anchor="end" transform="translate(-7,378)" font-family="sans-serif" font-size="10px" fill="#000" opacity="1">0.6</text><text text-anchor="end" transform="translate(-7,340.5)" font-family="sans-serif" font-size="10px" fill="#000" opacity="1">0.7</text><text text-anchor="end" transform="translate(-7,303)" font-family="sans-serif" font-size="10px" fill="#000" opacity="1">0.8</text><text text-anchor="end" transform="translate(-7,265.5)" font-family="sans-serif" font-size="10px" fill="#000" opacity="1">0.9</text><text text-anchor="end" transform="translate(-7,228)" font-family="sans-serif" font-size="10px" fill="#000" opacity="1">1.0</text><text text-anchor="end" transform="translate(-7,190.5)" font-family="sans-serif" font-size="10px" fill="#000" opacity="1">1.1</text><text text-anchor="end" transform="translate(-7,153.00000000000006)" font-family="sans-serif" font-size="10px" fill="#000" opacity="1">1.2</text><text text-anchor="end" transform="translate(-7,115.5)" font-family="sans-serif" font-size="10px" fill="#000" opacity="1">1.3</text><text text-anchor="end" transform="translate(-7,78.00000000000007)" font-family="sans-serif" font-size="10px" fill="#000" opacity="1">1.4</text><text text-anchor="end" transform="translate(-7,40.5)" font-family="sans-serif" font-size="10px" fill="#000" opacity="1">1.5</text><text text-anchor="end" transform="translate(-7,3)" font-family="sans-serif" font-size="10px" fill="#000" opacity="1">1.6</text></g><g class="mark-rule role-axis-domain" pointer-events="none"><line transform="translate(0,600)" x2="0" y2="-600" stroke="#888" stroke-width="1" opacity="1"/></g><g class="mark-text role-axis-title" pointer-events="none"><text text-anchor="middle" transform="translate(-35,300) rotate(-90) translate(0,-2)" font-family="sans-serif" font-size="11px" font-weight="bold" fill="#000" opacity="1">norm-mean-μs</text></g></g><path class="foreground" aria-hidden="true" d="" pointer-events="none" display="none"/></g></g><g class="mark-group role-scope layer_0_pathgroup" role="graphics-object" aria-roledescription="group mark container"><g transform="translate(0,0)"><path class="background" aria-hidden="true" d="M0,0h800v600h-800Z"/><g><g class="mark-line role-mark layer_0_marks" role="graphics-object" aria-roledescription="line mark container"><path aria-label="norm-mean-μs: 1; n-elems: 4; datastructure: clj" role="graphics-symbol" aria-roledescription="line mark" d="M80.27466551039498,225L133.33333333333334,225L266.6666666666667,225L400,225L533.3333333333334,225L800,225" stroke="#4c78a8" stroke-width="2"/></g></g><path class="foreground" aria-hidden="true" d="" display="none"/></g><g transform="translate(0,0)"><path class="background" aria-hidden="true" d="M0,0h800v600h-800Z"/><g><g class="mark-line role-mark layer_0_marks" role="graphics-object" aria-roledescription="line mark container"><path aria-label="norm-mean-μs: 1.19644784769; n-elems: 4; datastructure: hamf-hashmap" role="graphics-symbol" aria-roledescription="line mark" d="M80.27466551039498,151.3320571149246L133.33333333333334,350.59230218290094L266.6666666666667,354.6197497850394L400,420.97196200648597L533.3333333333334,366.3967011149314L800,365.9358447450303" stroke="#f58518" stroke-width="2"/></g></g><path class="foreground" aria-hidden="true" d="" display="none"/></g><g transform="translate(0,0)"><path class="background" aria-hidden="true" d="M0,0h800v600h-800Z"/><g><g class="mark-line role-mark layer_0_marks" role="graphics-object" aria-roledescription="line mark container"><path aria-label="norm-mean-μs: 1.1854406128; n-elems: 4; datastructure: hamf-trie" role="graphics-symbol" aria-roledescription="line mark" d="M80.27466551039498,155.45977020182525L133.33333333333334,345.0712470294879L266.6666666666667,273.02407376717713L400,279.79904111123733L533.3333333333334,171.748638020379L800,56.48018430577295" stroke="#e45756" stroke-width="2"/></g></g><path class="foreground" aria-hidden="true" d="" display="none"/></g><g transform="translate(0,0)"><path class="background" aria-hidden="true" d="M0,0h800v600h-800Z"/><g><g class="mark-line role-mark layer_0_marks" role="graphics-object" aria-roledescription="line mark container"><path aria-label="norm-mean-μs: 1.47790183133; n-elems: 4; datastructure: java" role="graphics-symbol" aria-roledescription="line mark" d="M80.27466551039498,45.786813250661936L133.33333333333334,350.3597516942422L266.6666666666667,364.99862254606165L400,432.06077211060176L533.3333333333334,363.8684343954301L800,368.6833443324897" stroke="#72b7b2" stroke-width="2"/></g></g><path class="foreground" aria-hidden="true" d="" display="none"/></g></g><g class="mark-symbol role-mark layer_1_marks" role="graphics-object" aria-roledescription="symbol mark container"><path aria-label="norm-mean-μs: 1; n-elems: 4; datastructure: clj" role="graphics-symbol" aria-roledescription="point" transform="translate(80.27466551039498,225)" d="M2.7386127875258306,0A2.7386127875258306,2.7386127875258306,0,1,1,-2.7386127875258306,0A2.7386127875258306,2.7386127875258306,0,1,1,2.7386127875258306,0" fill="#4c78a8" stroke-width="2" opacity="1"/><path aria-label="norm-mean-μs: 1; n-elems: 10; datastructure: clj" role="graphics-symbol" aria-roledescription="point" transform="translate(133.33333333333334,225)" d="M2.7386127875258306,0A2.7386127875258306,2.7386127875258306,0,1,1,-2.7386127875258306,0A2.7386127875258306,2.7386127875258306,0,1,1,2.7386127875258306,0" fill="#4c78a8" stroke-width="2" opacity="1"/><path aria-label="norm-mean-μs: 1; n-elems: 100; datastructure: clj" role="graphics-symbol" aria-roledescription="point" transform="translate(266.6666666666667,225)" d="M2.7386127875258306,0A2.7386127875258306,2.7386127875258306,0,1,1,-2.7386127875258306,0A2.7386127875258306,2.7386127875258306,0,1,1,2.7386127875258306,0" fill="#4c78a8" stroke-width="2" opacity="1"/><path aria-label="norm-mean-μs: 1; n-elems: 1000; datastructure: clj" role="graphics-symbol" aria-roledescription="point" transform="translate(400,225)" d="M2.7386127875258306,0A2.7386127875258306,2.7386127875258306,0,1,1,-2.7386127875258306,0A2.7386127875258306,2.7386127875258306,0,1,1,2.7386127875258306,0" fill="#4c78a8" stroke-width="2" opacity="1"/><path aria-label="norm-mean-μs: 1; n-elems: 10000; datastructure: clj" role="graphics-symbol" aria-roledescription="point" transform="translate(533.3333333333334,225)" d="M2.7386127875258306,0A2.7386127875258306,2.7386127875258306,0,1,1,-2.7386127875258306,0A2.7386127875258306,2.7386127875258306,0,1,1,2.7386127875258306,0" fill="#4c78a8" stroke-width="2" opacity="1"/><path aria-label="norm-mean-μs: 1; n-elems: 1000000; datastructure: clj" role="graphics-symbol" aria-roledescription="point" transform="translate(800,225)" d="M2.7386127875258306,0A2.7386127875258306,2.7386127875258306,0,1,1,-2.7386127875258306,0A2.7386127875258306,2.7386127875258306,0,1,1,2.7386127875258306,0" fill="#4c78a8" stroke-width="2" opacity="1"/><path aria-label="norm-mean-μs: 1.19644784769; n-elems: 4; datastructure: hamf-hashmap" role="graphics-symbol" aria-roledescription="point" transform="translate(80.27466551039498,151.3320571149246)" d="M-2.7386127875258306,-2.7386127875258306h5.477225575051661v5.477225575051661h-5.477225575051661Z" fill="#f58518" stroke-width="2" opacity="1"/><path aria-label="norm-mean-μs: 0.665087194179; n-elems: 10; datastructure: hamf-hashmap" role="graphics-symbol" aria-roledescription="point" transform="translate(133.33333333333334,350.59230218290094)" d="M-2.7386127875258306,-2.7386127875258306h5.477225575051661v5.477225575051661h-5.477225575051661Z" fill="#f58518" stroke-width="2" opacity="1"/><path aria-label="norm-mean-μs: 0.654347333907; n-elems: 100; datastructure: hamf-hashmap" role="graphics-symbol" aria-roledescription="point" transform="translate(266.6666666666667,354.6197497850394)" d="M-2.7386127875258306,-2.7386127875258306h5.477225575051661v5.477225575051661h-5.477225575051661Z" fill="#f58518" stroke-width="2" opacity="1"/><path aria-label="norm-mean-μs: 0.477408101316; n-elems: 1000; datastructure: hamf-hashmap" role="graphics-symbol" aria-roledescription="point" transform="translate(400,420.97196200648597)" d="M-2.7386127875258306,-2.7386127875258306h5.477225575051661v5.477225575051661h-5.477225575051661Z" fill="#f58518" stroke-width="2" opacity="1"/><path aria-label="norm-mean-μs: 0.62294213036; n-elems: 10000; datastructure: hamf-hashmap" role="graphics-symbol" aria-roledescription="point" transform="translate(533.3333333333334,366.3967011149314)" d="M-2.7386127875258306,-2.7386127875258306h5.477225575051661v5.477225575051661h-5.477225575051661Z" fill="#f58518" stroke-width="2" opacity="1"/><path aria-label="norm-mean-μs: 0.62417108068; n-elems: 1000000; datastructure: hamf-hashmap" role="graphics-symbol" aria-roledescription="point" transform="translate(800,365.9358447450303)" d="M-2.7386127875258306,-2.7386127875258306h5.477225575051661v5.477225575051661h-5.477225575051661Z" fill="#f58518" stroke-width="2" opacity="1"/><path aria-label="norm-mean-μs: 1.1854406128; n-elems: 4; datastructure: hamf-trie" role="graphics-symbol" aria-roledescription="point" transform="translate(80.27466551039498,155.45977020182525)" d="M0,-2.3717082451262845L-2.7386127875258306,2.3717082451262845L2.7386127875258306,2.3717082451262845Z" fill="#e45756" stroke-width="2" opacity="1"/><path aria-label="norm-mean-μs: 0.679810007921; n-elems: 10; datastructure: hamf-trie" role="graphics-symbol" aria-roledescription="point" transform="translate(133.33333333333334,345.0712470294879)" d="M0,-2.3717082451262845L-2.7386127875258306,2.3717082451262845L2.7386127875258306,2.3717082451262845Z" fill="#e45756" stroke-width="2" opacity="1"/><path aria-label="norm-mean-μs: 0.871935803288; n-elems: 100; datastructure: hamf-trie" role="graphics-symbol" aria-roledescription="point" transform="translate(266.6666666666667,273.02407376717713)" d="M0,-2.3717082451262845L-2.7386127875258306,2.3717082451262845L2.7386127875258306,2.3717082451262845Z" fill="#e45756" stroke-width="2" opacity="1"/><path aria-label="norm-mean-μs: 0.853869223703; n-elems: 1000; datastructure: hamf-trie" role="graphics-symbol" aria-roledescription="point" transform="translate(400,279.79904111123733)" d="M0,-2.3717082451262845L-2.7386127875258306,2.3717082451262845L2.7386127875258306,2.3717082451262845Z" fill="#e45756" stroke-width="2" opacity="1"/><path aria-label="norm-mean-μs: 1.14200363195; n-elems: 10000; datastructure: hamf-trie" role="graphics-symbol" aria-roledescription="point" transform="translate(533.3333333333334,171.748638020379)" d="M0,-2.3717082451262845L-2.7386127875258306,2.3717082451262845L2.7386127875258306,2.3717082451262845Z" fill="#e45756" stroke-width="2" opacity="1"/><path aria-label="norm-mean-μs: 1.44938617518; n-elems: 1000000; datastructure: hamf-trie" role="graphics-symbol" aria-roledescription="point" transform="translate(800,56.48018430577295)" d="M0,-2.3717082451262845L-2.7386127875258306,2.3717082451262845L2.7386127875258306,2.3717082451262845Z" fill="#e45756" stroke-width="2" opacity="1"/><path aria-label="norm-mean-μs: 1.47790183133; n-elems: 4; datastructure: java" role="graphics-symbol" aria-roledescription="point" transform="translate(80.27466551039498,45.786813250661936)" d="M-2.7386127875258306,-1.0954451150103321L-2.7386127875258306,1.0954451150103321L-1.0954451150103321,1.0954451150103321L-1.0954451150103321,2.7386127875258306L1.0954451150103321,2.7386127875258306L1.0954451150103321,1.0954451150103321L2.7386127875258306,1.0954451150103321L2.7386127875258306,-1.0954451150103321L1.0954451150103321,-1.0954451150103321L1.0954451150103321,-2.7386127875258306L-1.0954451150103321,-2.7386127875258306L-1.0954451150103321,-1.0954451150103321Z" fill="#72b7b2" stroke-width="2" opacity="1"/><path aria-label="norm-mean-μs: 0.665707328815; n-elems: 10; datastructure: java" role="graphics-symbol" aria-roledescription="point" transform="translate(133.33333333333334,350.3597516942422)" d="M-2.7386127875258306,-1.0954451150103321L-2.7386127875258306,1.0954451150103321L-1.0954451150103321,1.0954451150103321L-1.0954451150103321,2.7386127875258306L1.0954451150103321,2.7386127875258306L1.0954451150103321,1.0954451150103321L2.7386127875258306,1.0954451150103321L2.7386127875258306,-1.0954451150103321L1.0954451150103321,-1.0954451150103321L1.0954451150103321,-2.7386127875258306L-1.0954451150103321,-2.7386127875258306L-1.0954451150103321,-1.0954451150103321Z" fill="#72b7b2" stroke-width="2" opacity="1"/><path aria-label="norm-mean-μs: 0.626670339877; n-elems: 100; datastructure: java" role="graphics-symbol" aria-roledescription="point" transform="translate(266.6666666666667,364.99862254606165)" d="M-2.7386127875258306,-1.0954451150103321L-2.7386127875258306,1.0954451150103321L-1.0954451150103321,1.0954451150103321L-1.0954451150103321,2.7386127875258306L1.0954451150103321,2.7386127875258306L1.0954451150103321,1.0954451150103321L2.7386127875258306,1.0954451150103321L2.7386127875258306,-1.0954451150103321L1.0954451150103321,-1.0954451150103321L1.0954451150103321,-2.7386127875258306L-1.0954451150103321,-2.7386127875258306L-1.0954451150103321,-1.0954451150103321Z" fill="#72b7b2" stroke-width="2" opacity="1"/><path aria-label="norm-mean-μs: 0.447837941038; n-elems: 1000; datastructure: java" role="graphics-symbol" aria-roledescription="point" transform="translate(400,432.06077211060176)" d="M-2.7386127875258306,-1.0954451150103321L-2.7386127875258306,1.0954451150103321L-1.0954451150103321,1.0954451150103321L-1.0954451150103321,2.7386127875258306L1.0954451150103321,2.7386127875258306L1.0954451150103321,1.0954451150103321L2.7386127875258306,1.0954451150103321L2.7386127875258306,-1.0954451150103321L1.0954451150103321,-1.0954451150103321L1.0954451150103321,-2.7386127875258306L-1.0954451150103321,-2.7386127875258306L-1.0954451150103321,-1.0954451150103321Z" fill="#72b7b2" stroke-width="2" opacity="1"/><path aria-label="norm-mean-μs: 0.629684174946; n-elems: 10000; datastructure: java" role="graphics-symbol" aria-roledescription="point" transform="translate(533.3333333333334,363.8684343954301)" d="M-2.7386127875258306,-1.0954451150103321L-2.7386127875258306,1.0954451150103321L-1.0954451150103321,1.0954451150103321L-1.0954451150103321,2.7386127875258306L1.0954451150103321,2.7386127875258306L1.0954451150103321,1.0954451150103321L2.7386127875258306,1.0954451150103321L2.7386127875258306,-1.0954451150103321L1.0954451150103321,-1.0954451150103321L1.0954451150103321,-2.7386127875258306L-1.0954451150103321,-2.7386127875258306L-1.0954451150103321,-1.0954451150103321Z" fill="#72b7b2" stroke-width="2" opacity="1"/><path aria-label="norm-mean-μs: 0.616844415113; n-elems: 1000000; datastructure: java" role="graphics-symbol" aria-roledescription="point" transform="translate(800,368.6833443324897)" d="M-2.7386127875258306,-1.0954451150103321L-2.7386127875258306,1.0954451150103321L-1.0954451150103321,1.0954451150103321L-1.0954451150103321,2.7386127875258306L1.0954451150103321,2.7386127875258306L1.0954451150103321,1.0954451150103321L2.7386127875258306,1.0954451150103321L2.7386127875258306,-1.0954451150103321L1.0954451150103321,-1.0954451150103321L1.0954451150103321,-2.7386127875258306L-1.0954451150103321,-2.7386127875258306L-1.0954451150103321,-1.0954451150103321Z" fill="#72b7b2" stroke-width="2" opacity="1"/></g><g class="mark-group role-legend" role="graphics-symbol" aria-roledescription="legend" aria-label="Symbol legend titled 'datastructure' for fill color and stroke color with 4 values: clj, hamf-hashmap, hamf-trie, java"><g transform="translate(820,0)"><path class="background" aria-hidden="true" d="M0,0h114v77h-114Z" pointer-events="none"/><g><g class="mark-group role-legend-entry"><g transform="translate(0,16)"><path class="background" aria-hidden="true" d="M0,0h0v0h0Z" pointer-events="none"/><g><g class="mark-group role-scope" role="graphics-object" aria-roledescription="group mark container"><g transform="translate(0,0)"><path class="background" aria-hidden="true" d="M0,0h112v12.5h-112Z" pointer-events="none" opacity="1"/><g><g class="mark-symbol role-legend-symbol" pointer-events="none"><path transform="translate(6,6)" d="M5,0A5,5,0,1,1,-5,0A5,5,0,1,1,5,0" fill="#4c78a8" stroke="#4c78a8" stroke-width="1.5" opacity="1"/></g><g class="mark-text role-legend-label" pointer-events="none"><text text-anchor="start" transform="translate(16,9)" font-family="sans-serif" font-size="10px" fill="#000" opacity="1">clj</text></g></g><path class="foreground" aria-hidden="true" d="" pointer-events="none" display="none"/></g><g transform="translate(0,16)"><path class="background" aria-hidden="true" d="M0,0h112v12.5h-112Z" pointer-events="none" opacity="1"/><g><g class="mark-symbol role-legend-symbol" pointer-events="none"><path transform="translate(6,6)" d="M5,0A5,5,0,1,1,-5,0A5,5,0,1,1,5,0" fill="#f58518" stroke="#f58518" stroke-width="1.5" opacity="1"/></g><g class="mark-text role-legend-label" pointer-events="none"><text text-anchor="start" transform="translate(16,9)" font-family="sans-serif" font-size="10px" fill="#000" opacity="1">hamf-hashmap</text></g></g><path class="foreground" aria-hidden="true" d="" pointer-events="none" display="none"/></g><g transform="translate(0,32)"><path class="background" aria-hidden="true" d="M0,0h112v12.5h-112Z" pointer-events="none" opacity="1"/><g><g class="mark-symbol role-legend-symbol" pointer-events="none"><path transform="translate(6,6)" d="M5,0A5,5,0,1,1,-5,0A5,5,0,1,1,5,0" fill="#e45756" stroke="#e45756" stroke-width="1.5" opacity="1"/></g><g class="mark-text role-legend-label" pointer-events="none"><text text-anchor="start" transform="translate(16,9)" font-family="sans-serif" font-size="10px" fill="#000" opacity="1">hamf-trie</text></g></g><path class="foreground" aria-hidden="true" d="" pointer-events="none" display="none"/></g><g transform="translate(0,48)"><path class="background" aria-hidden="true" d="M0,0h112v12.5h-112Z" pointer-events="none" opacity="1"/><g><g class="mark-symbol role-legend-symbol" pointer-events="none"><path transform="translate(6,6)" d="M5,0A5,5,0,1,1,-5,0A5,5,0,1,1,5,0" fill="#72b7b2" stroke="#72b7b2" stroke-width="1.5" opacity="1"/></g><g class="mark-text role-legend-label" pointer-events="none"><text text-anchor="start" transform="translate(16,9)" font-family="sans-serif" font-size="10px" fill="#000" opacity="1">java</text></g></g><path class="foreground" aria-hidden="true" d="" pointer-events="none" display="none"/></g></g></g><path class="foreground" aria-hidden="true" d="" pointer-events="none" display="none"/></g></g><g class="mark-text role-legend-title" pointer-events="none"><text text-anchor="start" transform="translate(0,9)" font-family="sans-serif" font-size="11px" font-weight="bold" fill="#000" opacity="1">datastructure</text></g></g><path class="foreground" aria-hidden="true" d="" pointer-events="none" display="none"/></g></g><g class="mark-group role-legend" role="graphics-symbol" aria-roledescription="legend" aria-label="Symbol legend titled 'datastructure' for shape with 4 values: clj, hamf-hashmap, hamf-trie, java"><g transform="translate(820,85)"><path class="background" aria-hidden="true" d="M0,0h114v75h-114Z" pointer-events="none"/><g><g class="mark-group role-legend-entry"><g transform="translate(0,16)"><path class="background" aria-hidden="true" d="M0,0h0v0h0Z" pointer-events="none"/><g><g class="mark-group role-scope" role="graphics-object" aria-roledescription="group mark container"><g transform="translate(0,0)"><path class="background" aria-hidden="true" d="M0,0h112v12.5h-112Z" pointer-events="none" opacity="1"/><g><g class="mark-symbol role-legend-symbol" pointer-events="none"><path transform="translate(6,6)" d="M5,0A5,5,0,1,1,-5,0A5,5,0,1,1,5,0" fill="black" fill-opacity="1" stroke-width="1.5" opacity="1"/></g><g class="mark-text role-legend-label" pointer-events="none"><text text-anchor="start" transform="translate(16,9)" font-family="sans-serif" font-size="10px" fill="#000" opacity="1">clj</text></g></g><path class="foreground" aria-hidden="true" d="" pointer-events="none" display="none"/></g><g transform="translate(0,16)"><path class="background" aria-hidden="true" d="M0,0h112v12.5h-112Z" pointer-events="none" opacity="1"/><g><g class="mark-symbol role-legend-symbol" pointer-events="none"><path transform="translate(6,6)" d="M-5,-5h10v10h-10Z" fill="black" fill-opacity="1" stroke-width="1.5" opacity="1"/></g><g class="mark-text role-legend-label" pointer-events="none"><text text-anchor="start" transform="translate(16,9)" font-family="sans-serif" font-size="10px" fill="#000" opacity="1">hamf-hashmap</text></g></g><path class="foreground" aria-hidden="true" d="" pointer-events="none" display="none"/></g><g transform="translate(0,31)"><path class="background" aria-hidden="true" d="M0,0h112v11.830127018922191h-112Z" pointer-events="none" opacity="1"/><g><g class="mark-symbol role-legend-symbol" pointer-events="none"><path transform="translate(6,6)" d="M0,-4.330127018922193L-5,4.330127018922193L5,4.330127018922193Z" fill="black" fill-opacity="1" stroke-width="1.5" opacity="1"/></g><g class="mark-text role-legend-label" pointer-events="none"><text text-anchor="start" transform="translate(16,9)" font-family="sans-serif" font-size="10px" fill="#000" opacity="1">hamf-trie</text></g></g><path class="foreground" aria-hidden="true" d="" pointer-events="none" display="none"/></g><g transform="translate(0,46)"><path class="background" aria-hidden="true" d="M0,0h112v12.5h-112Z" pointer-events="none" opacity="1"/><g><g class="mark-symbol role-legend-symbol" pointer-events="none"><path transform="translate(6,6)" d="M-5,-2L-5,2L-2,2L-2,5L2,5L2,2L5,2L5,-2L2,-2L2,-5L-2,-5L-2,-2Z" fill="black" fill-opacity="1" stroke-width="1.5" opacity="1"/></g><g class="mark-text role-legend-label" pointer-events="none"><text text-anchor="start" transform="translate(16,9)" font-family="sans-serif" font-size="10px" fill="#000" opacity="1">java</text></g></g><path class="foreground" aria-hidden="true" d="" pointer-events="none" display="none"/></g></g></g><path class="foreground" aria-hidden="true" d="" pointer-events="none" display="none"/></g></g><g class="mark-text role-legend-title" pointer-events="none"><text text-anchor="start" transform="translate(0,9)" font-family="sans-serif" font-size="11px" font-weight="bold" fill="#000" opacity="1">datastructure</text></g></g><path class="foreground" aria-hidden="true" d="" pointer-events="none" display="none"/></g></g><g class="mark-group role-title"><g transform="translate(400,-22)"><path class="background" aria-hidden="true" d="M0,0h0v0h0Z" pointer-events="none"/><g><g class="mark-text role-title-text" role="graphics-symbol" aria-roledescription="title" aria-label="Title text 'charts/hashmap-construction-non-numeric.svg'" pointer-events="none"><text text-anchor="middle" transform="translate(0,10)" font-family="sans-serif" font-size="13px" font-weight="bold" fill="#000" opacity="1">charts/hashmap-construction-non-numeric.svg</text></g></g><path class="foreground" aria-hidden="true" d="" pointer-events="none" display="none"/></g></g></g><path class="foreground" aria-hidden="true" d="" display="none"/></g></g></g></svg>